<?xml version="1.0" encoding="utf-8"?>
<!-- Generator: Adobe Illustrator 25.2.1, SVG Export Plug-In . SVG Version: 6.00 Build 0)  -->
<svg version="1.1" id="图层_1" xmlns="http://www.w3.org/2000/svg" xmlns:xlink="http://www.w3.org/1999/xlink" x="0px" y="0px"
	 viewBox="0 0 180 181" style="enable-background:new 0 0 180 181;" xml:space="preserve">
<style type="text/css">
	.st0{fill-rule:evenodd;clip-rule:evenodd;fill:#D0D8DD;}
	.st1{fill-rule:evenodd;clip-rule:evenodd;fill:#E7EDF2;}
	.st2{fill:#BCC5CF;}
	.st3{fill:#FFFFFF;}
	.st4{fill-rule:evenodd;clip-rule:evenodd;fill:#F5FBFF;}
	.st5{fill-rule:evenodd;clip-rule:evenodd;fill:#BCC5CF;}
	.st6{fill-rule:evenodd;clip-rule:evenodd;fill:#D1D9E0;}
	.st7{fill-rule:evenodd;clip-rule:evenodd;fill:#FFFFFF;}
</style>
<polygon class="st0" points="55.8,85.6 89.6,71.3 123.4,85.6 123.4,116.3 55.8,116.3 "/>
<path class="st1" d="M89.6,71.3L76.7,54.6c-1.4-1.7-3.6-2.4-5.6-1.5L46.8,63.3c-3.1,1.3-4.1,5.4-2,8.1l11,14.2L89.6,71.3z"/>
<path class="st2" d="M89.6,70.8c-0.3,0-0.5,0.2-0.5,0.5v28.6c0,0.3,0.2,0.5,0.5,0.5s0.5-0.2,0.5-0.5V71.3
	C90.1,71,89.9,70.8,89.6,70.8z"/>
<path class="st1" d="M110.5,85.5L72,80.1c-1.9-0.3-3.3-2.1-3-4.1l4.6-32.5c0.3-2,2.1-3.3,4-3.1l38.5,5.4c1.9,0.3,3.3,2.1,3,4.1
	l-4.6,32.5C114.2,84.4,112.4,85.8,110.5,85.5"/>
<path class="st3" d="M111,87.5c-0.3,0-0.5,0-0.8-0.1L71.7,82c-1.5-0.2-2.8-1-3.7-2.2c-0.9-1.2-1.3-2.7-1.1-4.1l4.6-32.5
	c0.2-1.5,1-2.8,2.2-3.7s2.7-1.3,4.1-1.1l38.5,5.4l0,0c1.5,0.2,2.8,1,3.7,2.2c0.9,1.2,1.3,2.7,1.1,4.1l-4.6,32.5
	c-0.2,1.5-1,2.8-2.2,3.7C113.3,87.2,112.2,87.5,111,87.5z M77,40.5c-0.8,0-1.5,0.3-2.1,0.7c-0.8,0.6-1.3,1.4-1.4,2.4L68.9,76
	c-0.1,1,0.1,1.9,0.7,2.7S71,80,72,80.1l38.5,5.4c0.9,0.1,1.9-0.1,2.6-0.7c0.8-0.6,1.3-1.4,1.4-2.4l4.6-32.5c0.1-1-0.1-1.9-0.7-2.7
	S117,46,116,45.9l-38.5-5.4C77.4,40.5,77.2,40.5,77,40.5z"/>
<path class="st4" d="M109.3,82.3l-35.3-5c-1.2-0.2-2-1.3-1.9-2.5l4.1-29.3c0.2-1.2,1.3-2.1,2.5-1.9l35.3,5c1.2,0.2,2,1.3,1.9,2.5
	l-4.1,29.3C111.6,81.6,110.5,82.5,109.3,82.3"/>
<path class="st5" d="M107.9,57.4c-0.3,1.9-2,3.2-4,3c-1.9-0.3-3.2-2-3-4c0.3-1.9,2-3.2,4-3C106.9,53.7,108.2,55.5,107.9,57.4"/>
<path class="st5" d="M79,67.8l8.8-7.6c1.4-1.2,3.4-1,4.5,0.6l1.9,3c0.8,1.2,2.4,1.5,3.5,0.5l0.2-0.2c1.4-1.2,3.4-1,4.5,0.6l4.6,7
	c1.4,2.1-0.2,5.2-2.6,4.9L80,73.2C77.8,72.8,77,69.4,79,67.8"/>
<path class="st1" d="M128.3,68.9L106,78.3c-2.9,1.2-5.4,3.4-7.1,6.2l-9.2,15.3L55.8,85.6v30.8c0,5.1,2.9,9.7,7.4,11.6l22,9.3
	c2.8,1.2,5.9,1.2,8.8,0l22-9.3c4.5-1.9,7.4-6.5,7.4-11.6V85.6l0,0l7.8-12.9C132.5,70.6,130.5,68,128.3,68.9z"/>
<path class="st2" d="M131.3,69.2c-0.8-1-2.1-1.3-3.3-0.8l-11.8,5l3.3-23.4c0.2-1.1-0.1-2.2-0.8-3c-0.7-0.9-1.6-1.4-2.7-1.6L77.6,40
	c-1.1-0.2-2.1,0.1-3,0.8s-1.4,1.6-1.6,2.7L68.4,76c-0.2,1.1,0.1,2.2,0.8,3c0.7,0.9,1.6,1.4,2.7,1.6l26.5,3.7l-9,14.9L57.1,85.6
	l11.6-4.9c-0.1-0.1-0.1-0.3-0.2-0.4s-0.3-0.3-0.4-0.4l0,0L55.9,85L45.2,71.1c-0.9-1.2-1.2-2.7-0.8-4.2c0.4-1.4,1.3-2.5,2.6-3.1
	l23-9.7l0.2-1.2l-23.6,10c-1.6,0.7-2.7,2-3.2,3.8s-0.1,3.6,1,5.1l10.9,14.1v30.7c0,5.3,3,10,7.7,12l22,9.3c1.5,0.6,3,0.9,4.6,0.9
	s3.1-0.3,4.6-0.9l22-9.3c4.7-2,7.7-6.7,7.7-12V85.7l7.7-12.8C132.4,71.7,132.2,70.3,131.3,69.2z M72,79.6c-0.8-0.1-1.5-0.5-2-1.2
	s-0.7-1.5-0.6-2.3L74,43.6c0.1-0.8,0.5-1.5,1.2-2s1.5-0.7,2.3-0.6l38.5,5.4c0.8,0.1,1.5,0.5,2,1.2s0.7,1.5,0.6,2.3l-3.4,24l-2.1,0.9
	l3.3-23.6c0.2-1.5-0.8-2.9-2.3-3.1l-35.3-5c-1.5-0.1-2.8,0.9-3,2.4l-4.1,29.3c-0.2,1.5,0.8,2.9,2.3,3.1l26.5,3.7
	c-0.5,0.6-1,1.2-1.5,1.8L72,79.6z M112,75.3l-6.2,2.6c-1.6,0.7-3.1,1.6-4.4,2.8l-27.3-3.8c-0.9-0.1-1.6-1-1.4-1.9l4.1-29.3
	c0.1-0.9,1-1.6,1.9-1.5l35.3,5c0.9,0.1,1.6,1,1.4,1.9L112,75.3z M122.9,116.4c0,4.9-2.8,9.3-7.1,11.1l-22,9.3
	c-2.7,1.1-5.7,1.1-8.4,0l-22-9.3c-4.3-1.8-7.1-6.2-7.1-11.1v-30l33.1,14c0.1,0.1,0.3,0.1,0.4,0l33.1-14V116.4z M130.8,72.4
	l-7.7,12.8l-18.7,7.9l-13.6,5.7l8.4-14c1.6-2.7,4-4.8,6.9-6l22.3-9.4c0.3-0.1,0.5-0.2,0.7-0.2c0.6,0,1.1,0.3,1.4,0.7
	C131.1,70.4,131.4,71.4,130.8,72.4z"/>
<path class="st0" d="M83.6,114.8v21.9l-12.9,10.1L52.8,130C52.8,130,78.4,114.8,83.6,114.8"/>
<path class="st1" d="M68.5,146.2L43,133.6c-1.8-0.9-2.6-3.7-1.7-6.3l9.1-25.9c0.9-2.6,3.1-3.9,5-3L81,111c1.8,0.9,2.6,3.7,1.7,6.3
	l-9.1,25.9C72.6,145.8,70.4,147.1,68.5,146.2"/>
<path class="st4" d="M68.8,142.5l-23.6-11.7c-1-0.5-1.3-1.9-0.9-3.3l8.4-23.7c0.5-1.3,1.6-2,2.6-1.6l23.6,11.7
	c1,0.5,1.3,1.9,0.9,3.3l-8.4,23.7C70.9,142.2,69.7,142.9,68.8,142.5"/>
<path class="st2" d="M81.2,110.6L55.7,98c-0.8-0.4-1.8-0.4-2.7-0.1c-1.3,0.5-2.4,1.8-2.9,3.4L41,127.2c-1,2.8-0.1,5.9,1.9,6.9
	l25.5,12.6c0.4,0.2,0.9,0.3,1.4,0.3c0.4,0,0.9-0.1,1.3-0.3c1.3-0.5,2.4-1.8,2.9-3.4l9.1-25.9C84.1,114.7,83.2,111.6,81.2,110.6z
	 M82.2,117.2L73,143c-0.5,1.3-1.4,2.4-2.4,2.8c-0.7,0.3-1.3,0.3-1.9,0l-25.5-12.6c-1.6-0.8-2.3-3.4-1.4-5.7l9.1-25.9
	c0.5-1.3,1.4-2.4,2.4-2.8c0.3-0.1,0.6-0.2,0.9-0.2c0.3,0,0.7,0.1,1,0.2l25.5,12.6C82.3,112.3,83,114.8,82.2,117.2z"/>
<path class="st2" d="M79.1,113.4l-23.6-11.7c-0.5-0.2-1.1-0.3-1.6,0c-0.7,0.3-1.3,1-1.7,1.9l-8.4,23.7c-0.6,1.6-0.1,3.3,1.1,3.9
	l23.6,11.7c0.3,0.1,0.6,0.2,0.8,0.2c0.3,0,0.5-0.1,0.8-0.2c0.7-0.3,1.3-1,1.7-1.9l8.4-23.7C80.8,115.7,80.3,114,79.1,113.4z
	 M79.3,117l-8.4,23.7c-0.2,0.6-0.6,1.1-1.1,1.3c-0.2,0.1-0.5,0.1-0.8,0l-23.6-11.7c-0.7-0.4-1-1.6-0.6-2.7l8.4-23.7
	c0.2-0.6,0.6-1.1,1.1-1.3c0.1,0,0.2-0.1,0.4-0.1c0.1,0,0.3,0,0.4,0.1l23.6,11.7C79.4,114.7,79.7,115.9,79.3,117z"/>
<g id="Fill-65">
	<path class="st6" d="M49.5,123.2l8.3-5.1c1.2-0.7,2.5-0.1,2.9,1.5l1.7,6.4c0.1,0.4,0.5,0.6,0.9,0.4l1.6-0.9
		c1.2-0.7,2.5-0.1,2.9,1.5l1.8,6.8c0.7,2.5-1.4,5.2-3.2,4.3L49,129.5c-1.1-0.6-1.6-2.3-1.1-3.9l0.2-0.5
		C48.5,124.2,48.9,123.5,49.5,123.2"/>
</g>
<path class="st6" d="M72.3,120c-0.6,1.6-2,2.5-3.2,1.9s-1.6-2.4-1.1-4c0.6-1.6,2-2.5,3.2-1.9C72.4,116.5,72.9,118.3,72.3,120"/>
<path class="st1" d="M154.3,133.3c0,0-0.1-2.9-4.8-6.6c-3.2-2.6-7.3-1.4-8.3-1V124l0,0l0,0c0-2.9-6.2-5.2-13.8-5.2
	c-7.6,0-13.8,2.3-13.8,5.2l0,0v8.5c0,2.9,6.2,5.2,13.8,5.2c7.3,0,13.2-2.1,13.7-4.9c8.4-1.3,13.8,5.2,13.8,5.2L154.3,133.3z"/>
<path class="st7" d="M136.2,123.8c0,1.8-3.9,3.3-8.8,3.3c-4.8,0-8.8-1.5-8.8-3.3s3.9-3.3,8.8-3.3C132.3,120.5,136.2,122,136.2,123.8
	"/>
<path class="st2" d="M136,125.4c0.1-0.1,0.3-0.3,0.3-0.4c0,0,0,0,0-0.1c0.1-0.1,0.1-0.3,0.2-0.4v-0.1c0-0.2,0.1-0.3,0.1-0.5
	s0-0.3-0.1-0.5c-0.5-2.2-5-3.4-9.2-3.4l0,0l0,0c-3.1,0-6.3,0.6-8,1.8c-0.2,0.1-0.3,0.2-0.4,0.3c-0.3,0.2-0.5,0.5-0.6,0.8
	s-0.2,0.6-0.2,0.9c0,0.2,0,0.3,0.1,0.5v0.1c0,0.1,0.1,0.3,0.2,0.4c0,0,0,0,0,0.1c0.1,0.2,0.2,0.3,0.3,0.4l0,0c0.5,0.5,1.1,0.9,2,1.2
	l0,0c0.6,0.2,1.2,0.4,1.9,0.6c0,0,0,0,0.1,0l0,0c1.4,0.3,3,0.5,4.6,0.5c1.6,0,3.2-0.2,4.6-0.5l0,0c0,0,0,0,0.1,0
	c0.7-0.2,1.3-0.4,1.9-0.6l0,0C134.9,126.2,135.6,125.8,136,125.4L136,125.4z M119.8,122.8c1.2-1,4-1.8,7.7-1.8c3.3,0,6,0.7,7.3,1.6
	c0.6,0.4,0.9,0.8,0.9,1.2c0,0.1,0,0.2-0.1,0.3c0,0,0,0,0,0.1c-0.3,0.8-1.7,1.5-3.7,2c-2.7-0.6-6.2-0.6-9,0c-1.9-0.5-3.3-1.2-3.7-2
	c0,0,0,0,0-0.1s-0.1-0.2-0.1-0.3C119.2,123.5,119.4,123.2,119.8,122.8z"/>
<path class="st2" d="M154.8,133.2c0-0.1-0.1-3.2-4.9-7c-3-2.4-6.5-1.8-8.1-1.3V124l0,0c0-0.1,0-0.1,0-0.2c0-3.2-6.3-5.7-14.3-5.7
	s-14.3,2.5-14.3,5.7l0,0l0,0v8.5c0,3.2,6.3,5.7,14.3,5.7c7.3,0,13.1-2.1,14.1-4.9c7.9-1,13,5,13,5.1c0.1,0.1,0.2,0.2,0.4,0.2
	c0.1,0,0.1,0,0.2,0c0.2-0.1,0.3-0.3,0.3-0.5L154.8,133.2z M127.5,119.1c7.9,0,13.3,2.4,13.3,4.7c0,2.3-5.3,4.7-13.3,4.7
	c-7.9,0-13.3-2.4-13.3-4.7C114.2,121.6,119.5,119.1,127.5,119.1z M140.7,132.4c0,2.3-5.3,4.7-13.3,4.7c-7.9,0-13.3-2.4-13.3-4.7V126
	c2.1,2.1,7.2,3.6,13.3,3.6s11.2-1.5,13.3-3.6V132.4z M141.7,132.2V126c1.3-0.4,4.8-1.1,7.5,1.1c4.4,3.5,4.6,6.2,4.6,6.3l0.5,3.2
	C152.3,134.8,147.8,131.5,141.7,132.2z"/>
</svg>
